inDegrees=no
num_controls=7
num_derivatives=13
num_iterations=140
num_multipliers=7
num_parameters=0
num_slacks=7
num_states=26
objective=6.230585
objective_accelerations=0.733702
objective_balance=0.031543
objective_effort=0.668710
objective_height=4.702655
objective_ligament=0.093975
solver_duration=1413.704366
status=Solve_Succeeded
success=true
DataType=double
version=3
OpenSimVersion=4.4-2022-07-23-0e9fedc
endheader
time	/jointset/ground_pelvis/pelvis_tilt/value	/jointset/ground_pelvis/pelvis_tx/value	/jointset/ground_pelvis/pelvis_ty/value	/jointset/hip_l/hip_flexion_l/value	/jointset/hip_l/hip_adduction_l/value	/jointset/hip_l/hip_rotation_l/value	/jointset/back/lumbar_extension/value	/jointset/patellofemoral_l/patellar_flexion_l/value	/jointset/knee_l/knee_flexion_l/value	/jointset/knee_l/knee_adduction_l/value	/jointset/knee_l/knee_rotation_l/value	/jointset/ankle_l/ankle_angle_l/value	/jointset/subtalar_l/subtalar_angle_l/value	/jointset/ground_pelvis/pelvis_tilt/speed	/jointset/ground_pelvis/pelvis_tx/speed	/jointset/ground_pelvis/pelvis_ty/speed	/jointset/hip_l/hip_flexion_l/speed	/jointset/hip_l/hip_adduction_l/speed	/jointset/hip_l/hip_rotation_l/speed	/jointset/back/lumbar_extension/speed	/jointset/patellofemoral_l/patellar_flexion_l/speed	/jointset/knee_l/knee_flexion_l/speed	/jointset/knee_l/knee_adduction_l/speed	/jointset/knee_l/knee_rotation_l/speed	/jointset/ankle_l/ankle_angle_l/speed	/jointset/subtalar_l/subtalar_angle_l/speed	/forceset/tau_hip_flexion_l	/forceset/tau_hip_adduction_l	/forceset/tau_hip_rotation_l	/forceset/tau_knee_flexion_l	/forceset/tau_ankle_angle_l	/forceset/tau_subtalar_angle_l	/forceset/tau_lumbar_extension	lambda_cid13_p0	lambda_cid13_p1	lambda_cid13_p2	lambda_cid13_p3	lambda_cid13_p4	lambda_cid13_p5	lambda_cid14_p0	/jointset/ground_pelvis/pelvis_tilt/accel	/jointset/ground_pelvis/pelvis_tx/accel	/jointset/ground_pelvis/pelvis_ty/accel	/jointset/hip_l/hip_flexion_l/accel	/jointset/hip_l/hip_adduction_l/accel	/jointset/hip_l/hip_rotation_l/accel	/jointset/back/lumbar_extension/accel	/jointset/patellofemoral_l/patellar_flexion_l/accel	/jointset/knee_l/knee_flexion_l/accel	/jointset/knee_l/knee_adduction_l/accel	/jointset/knee_l/knee_rotation_l/accel	/jointset/ankle_l/ankle_angle_l/accel	/jointset/subtalar_l/subtalar_angle_l/accel	gamma_cid13_p0	gamma_cid13_p1	gamma_cid13_p2	gamma_cid13_p3	gamma_cid13_p4	gamma_cid13_p5	gamma_cid14_p0
0	-0.03636525820033881	0.05647826255682453	0.9203496918473043	0.3085811930696054	-0.2955113204098713	-0.2987429962362266	-0.3879500408040475	0.2499276582270671	0.249927658227084	-0.1745327682754758	-0.1717232902822639	-0.0008036543073733089	0.0005347102920588392	0	0	0	0	0	0	0	0	0	0	0	0	0	0.08359651564196297	-0.01422797010063941	-0.01589485689636719	-0.2101817668400927	0.1117342843551335	-0.03163696512790339	-0.02081155668910494	-8.062371593900732	11.86354144665017	1.410069633463615	49.86731907144317	-604.2642698552864	-52.51664237151919	-23.10200547085833	-2.703559229919214	-3.263077466334564	-1.247529469862617	13.03106507293461	-0.7855190002882696	3.261195674723673	-8.238572451443128	9.771230158674213	9.771230158674181	1.480459627305649	-0.293273792313214	-0.07059657833085825	-0.8786978183251379	2.360080037462147e-08	1.687434678473697e-07	4.652067818856667e-08	-3.300843919581466e-08	2.251650919396785e-07	6.789530940572651e-08	3.970313003989376e-09
0.01	-0.03649471808300245	0.0563174360510762	0.9202886160602204	0.309217561067692	-0.2955509376546806	-0.2985797093413312	-0.3883605277344333	0.2504066473976321	0.2504066473976497	-0.1744627895017179	-0.1717349070810167	-0.0008080113753457367	0.0004901333539419435	-0.02576816440134334	-0.03195640037583938	-0.01216672113487919	0.1266028649322966	-0.007868941127428886	0.03250617894508921	-0.08147219308026674	0.09533625703585399	0.09533625703585512	0.01394546406793082	-0.002291519071490515	-0.0007967210223720682	-0.008831089833358461	0.07684404166728187	-0.02837979137648636	-0.01510712381427405	-0.2060536741742474	0.1043928493909051	-0.01458588690037464	-0.01408289505832417	-9.88165965790156	4.901292497935557	2.377845625414284	48.20248274171826	-607.531352268703	-66.55203769448661	-23.10790440573759	-2.494883050195639	-3.130592808314176	-1.193932960050983	12.37428163257788	-0.7794346312267806	3.222648816630189	-8.007763787205704	9.345586119626947	9.345586119627171	1.344076018868879	-0.1923111831413684	-0.07299918942022213	-0.8727026614980681	-8.008917700968884e-09	1.618165614325948e-07	1.190198293325177e-07	1.512602279804993e-09	7.101923355772419e-08	2.886640288863874e-08	-4.389850752156406e-09
0.02	-0.03687814721065827	0.05584331124454901	0.920107335156839	0.3110998346009595	-0.2956676149032177	-0.2980958966945436	-0.3895669808057957	0.2518251516673091	0.251825151667309	-0.1742548588426734	-0.1717684831141504	-0.0008180935185878093	0.0003597678983600542	-0.05079384900092303	-0.06265966015577104	-0.02404102325950996	0.2491811070326296	-0.01541200074513475	0.06410515037934285	-0.1591932281960601	0.1879030198151438	0.1879030198151484	0.02759037702913869	-0.004391846885948768	-0.001145015053947368	-0.01715770349299956	0.07009156769275185	-0.04253161265231974	-0.01431939073240876	-0.2019255815082286	0.09705141442673618	0.002465191327192285	-0.007354233427499452	-11.62283024554975	-2.072003603832422	3.344376431084165	46.5244605349197	-609.5520467682445	-80.49821563500035	-23.12521125684498	-2.555063269566839	-3.012449347152842	-1.18904566781295	12.22614050654194	-0.7203426983438147	3.079754172556626	-7.4883408585486	9.217331307361292	9.21733130736172	1.420349405960735	-0.2550355409067321	0.01908881982861546	-0.7778025835817801	-3.961863577655924e-08	1.548896550178199e-07	1.915189804764688e-07	3.603364375542465e-08	-8.312662482423012e-08	-1.016250362844903e-08	-1.275001450830219e-08
0.03	-0.03750840807691785	0.05506828254195698	0.9198083820541373	0.314188577804759	-0.2958580611593274	-0.2973008705489438	-0.3915322866991311	0.2541558324369632	0.2541558324370147	-0.1739120780621998	-0.1718223477366061	-0.0008296187834600082	0.0001486270392818002	-0.07512490827479189	-0.09215055278645262	-0.03573384302365146	0.3679288433988298	-0.02263187718018097	0.09476933026089884	-0.2333261566202792	0.2778004481575351	0.2778004481575388	0.04087698125215575	-0.006335178008344867	-0.001103082126715914	-0.02500191966981159	0.06322527902854422	-0.033987729679018	-0.01375037069999416	-0.1979540217636637	0.09730845290270657	-0.002673738992115237	-0.0009840487495653167	-11.72661642141337	0.1065888860891759	3.078625315196656	45.05459468605618	-610.6742414028422	-74.89437658722242	-23.1531190882421	-2.35212045735843	-2.888072737969088	-1.157054240300882	11.6032788608137	-0.716042468084169	3.04011262097173	-7.294499757179261	8.811048286158195	8.811048286157797	1.269535442540122	-0.1570664365840929	0.005292332821462301	-0.7774955674467217	-6.044003130097358e-08	1.547616175713617e-07	2.47097269066693e-07	5.858042075007661e-08	-1.838426947716445e-07	-3.515714349648345e-08	-1.870636727190239e-08
0.04	-0.03837797817612253	0.05400421220966997	0.9193929699318771	0.3184456361040772	-0.2961193526501911	-0.2962031300595335	-0.3942226680612678	0.2573725074278275	0.2573725074278318	-0.1734390873370936	-0.1718942625778939	-0.0008390153583294885	-0.0001389088681076986	-0.09865569559121441	-0.1204679860947647	-0.0473328271712082	0.4828441261311964	-0.02958104769520976	0.1246480191431446	-0.3042083219573605	0.3651018640391263	0.3651018640391286	0.05363236595789819	-0.008001890677860259	-0.0007192770534420625	-0.03243671315525375	0.05635899036458275	-0.02544384670566855	-0.01318135066827903	-0.1939824620188331	0.09756549137875697	-0.007812669311337178	0.005386135928489991	-11.75916265828618	2.275506135945652	2.811219199225802	43.56350062806992	-610.6822271346629	-69.20611683148341	-23.19065472965798	-2.395008878077859	-2.777757482678787	-1.170278544496006	11.45964977977532	-0.666201514340377	2.92265597269463	-6.838188241121156	8.698128815201217	8.698128815201494	1.314105502505704	-0.19971185033053	0.08746324903721232	-0.6959180453078122	-8.103898718515751e-08	1.547737629902296e-07	3.02326673892923e-07	8.08803056935746e-08	-2.834571195966972e-07	-5.986241704185697e-08	-2.461315692225424e-08
0.05	-0.03947940550356922	0.05266311128100901	0.9188617786659893	0.3238331766473431	-0.2964484864101443	-0.2948111374428984	-0.3976047168472644	0.2614493763888542	0.2614493763888021	-0.1728407348312242	-0.1719818880014259	-0.000842555979744859	-0.0004983245447556374	-0.1215018396675033	-0.147527549904749	-0.05890724910482932	0.5939953628227002	-0.03618632629183575	0.1535875545620154	-0.3716246301723065	0.4498245590937479	0.4498245590937106	0.06595402672090103	-0.009490844729899474	9.065696780613673e-05	-0.039355288576391	0.04935071139040093	-0.02653038943594636	-0.0125964234420854	-0.1913352720984763	0.09701295595226708	-0.004257780826634589	0.01191669223699454	-11.71079687563445	0.7559931071921641	3.015956237159963	41.38149812816827	-610.7223882610923	-71.29508418980984	-23.2365834620364	-2.210231082294815	-2.636342013596038	-1.151354978973251	10.84255771160923	-0.6488314620044806	2.855116564278083	-6.606831351627352	8.292239460819189	8.292239460813166	1.178627753963055	-0.118583972927252	0.08968610732498684	-0.6762164735132555	-9.592885648666142e-08	1.233765557009254e-07	3.345162129585366e-07	9.63983005151534e-08	-3.625451028574714e-07	-8.302957759620419e-08	-3.066295480464479e-08
0.06	-0.04080545705375341	0.05105815747756144	0.9182147769885299	0.3303121689771017	-0.2968419010420046	-0.293134646624521	-0.401643624563396	0.2663600522224087	0.266360052222417	-0.1721216794395817	-0.1720834223236261	-0.0008356117352162723	-0.0009242038122143106	-0.143580540139452	-0.1732385610520878	-0.07049490948551733	0.7011344834250794	-0.04243722207570431	0.1815476594926783	-0.4355801079851263	0.5318632385574226	0.5318632385573464	0.07777294311452157	-0.01078367039338354	0.001377696135303718	-0.04572943131739293	0.04234243241640064	-0.02761693216618963	-0.01201149621527744	-0.188688082178105	0.09646042052580815	-0.0007028923418940698	0.0184472485456028	-11.60185249793836	-0.7714495243741606	3.218898748413393	39.1765186929422	-609.8010646658457	-73.30577234902077	-23.28954365178784	-2.241520157210114	-2.508046950149569	-1.172926233909388	10.65722656195052	-0.5953249517889004	2.726769875053102	-6.146022160696058	8.161325697011742	8.161325697012213	1.213556628629181	-0.1604861726194245	0.1828842782872054	-0.5870315092807292	-1.105783431952104e-07	9.065684935022447e-08	3.657356524131767e-07	1.116307420684409e-07	-4.407688148944865e-07	-1.061319754982976e-07	-3.671877408627908e-08
0.07000000000000001	-0.04234898114530992	0.04920278773422675	0.9174515815679615	0.3378435589152876	-0.2972958751320678	-0.2911837150256092	-0.4063044853918646	0.2720782111685223	0.2720782111685561	-0.1712865742109054	-0.1721972014518582	-0.0008133615722949323	-0.001410899452037926	-0.1649961411535944	-0.1976132097220163	-0.08216222084076751	0.8044920228096918	-0.04829219404455432	0.2084840622029309	-0.4960421435294485	0.6113286686403021	0.6113286686402997	0.08916176825998129	-0.01192832006873303	0.003144725922634609	-0.0515151951201317	0.0350100585967652	-0.0261080419054673	-0.01143145024799822	-0.1862766358833978	0.09696033646151926	0.0003147850236831027	0.0250584710486038	-11.25271835891491	-1.257840443666883	3.277347784258234	37.03074716807543	-608.8319398407194	-73.04529463866359	-23.34798507329529	-2.072359519073098	-2.368824630279407	-1.166429620161866	10.07728560609761	-0.5708150292888761	2.65382892044565	-5.913807124814523	7.773176776659283	7.77317677667015	1.088636512111143	-0.08481455169910028	0.1844699825389013	-0.5602293150895264	-1.186359158711298e-07	5.414733457123603e-08	3.789857014599951e-07	1.20218761733551e-07	-4.876797171820343e-07	-1.207625558192335e-07	-4.107279818274747e-08
0.08	-0.04410281713612121	0.04711034134322068	0.9165711538270747	0.3463889778432075	-0.2978064452837907	-0.2889680687093089	-0.4115534691504758	0.2785778294380402	0.278577829438054	-0.1703401625198485	-0.1723210991141436	-0.0007712695807833386	-0.001952628829752855	-0.185642919990031	-0.2206538905863631	-0.09394137354918131	0.9039402813695774	-0.05375643440762698	0.2344906029705643	-0.5532046940143709	0.6881551032324986	0.6881551032325676	0.1000342355897045	-0.01280737721232878	0.005346061853273141	-0.05673617889563648	0.02767768477721227	-0.0245991516447739	-0.01085140428090648	-0.1838651895886456	0.0974602523972202	0.001332462389229552	0.03166969355168402	-10.85191487273575	-1.750662826496826	3.333834474765418	34.85675630756676	-607.0528512236918	-72.71432536232423	-23.41024721636412	-2.087755721669202	-2.241253389033054	-1.195294504542116	9.875370397005266	-0.5171786306334587	2.540797486529305	-5.486125148816211	7.633526598875017	7.633526598875065	1.110285065481829	-0.1073676662685849	0.2697455069488636	-0.4740755038338921	-1.262682037707505e-07	1.739331602268071e-08	3.910764349966313e-07	1.283781090187788e-07	-5.325704381954228e-07	-1.348465672639655e-07	-4.531702904146321e-08
0.09	-0.04605980960290541	0.04479412774517282	0.9155721868729894	0.3559103427623234	-0.2983695823774771	-0.2864973857611344	-0.4173572000599571	0.2858330171580468	0.285833017158081	-0.1692872838391858	-0.1724529120203034	-0.0007049359849331449	-0.002543596403280607	-0.2056299084264111	-0.2423672114681009	-0.1058802796650866	0.9996931881367486	-0.05880319805547495	0.2594849898020289	-0.6070081006167027	0.7624454692943365	0.7624454692943269	0.1104508843011082	-0.01351652627333343	0.007985284667119416	-0.0613633656931766	0.02006575592831143	-0.02288399397029092	-0.0102748685553623	-0.1817963632577496	0.09835122859641879	0.00212635929703478	0.03841294004442589	-10.35094470910372	-2.160546475756036	3.373341262169703	32.70315586288837	-605.4868865169784	-72.17272922362037	-23.47453126880357	-1.9353177243408	-2.103102996503094	-1.197535264287982	9.329314896389443	-0.4882898336841979	2.454545163164892	-5.247440326516655	7.261255020163902	7.261255020152235	0.9937924726666918	-0.04681523950731802	0.2707015941799268	-0.4429913701554065	-1.296650631072596e-07	-3.071944966322715e-08	3.913069652232838e-07	1.308862783455131e-07	-5.565574483961017e-07	-1.445336476017201e-07	-4.959776038596285e-08
